<?xml version="1.0" encoding="UTF-8"?>
<!DOCTYPE svg PUBLIC "-//W3C//DTD SVG 1.1//EN" "http://www.w3.org/Graphics/SVG/1.1/DTD/svg11.dtd">
<!-- Creator: CorelDRAW -->
<svg xmlns="http://www.w3.org/2000/svg" xml:space="preserve" width="512px" height="512px" version="1.1" style="shape-rendering:geometricPrecision; text-rendering:geometricPrecision; image-rendering:optimizeQuality; fill-rule:evenodd; clip-rule:evenodd"
viewBox="0 0 512 512"
 xmlns:xlink="http://www.w3.org/1999/xlink"
 xmlns:xodm="http://www.corel.com/coreldraw/odm/2003">
 <defs>
  <style type="text/css">
   <![CDATA[
    .fil1 {fill:#00CCFF}
    .fil0 {fill:#1B74B9}
    .fil2 {fill:#F9F9F9}
   ]]>
  </style>
 </defs>
 <g id="Layer_x0020_1">
  <metadata id="CorelCorpID_0Corel-Layer"/>
  <path class="fil0" d="M136.21 140.17c-4.42,-0.33 -34.8,-18.17 -40.96,-21.56 -4.28,2.35 -36.81,21.14 -39.57,21.42 -2.71,0.27 -5.06,-0.37 -6.87,-2.5 -21.35,36.47 -32.52,77.68 -32.52,120.66 0,132.17 107.54,239.71 239.71,239.71 132.18,0 239.71,-107.54 239.71,-239.71 0,-132.18 -107.53,-239.71 -239.71,-239.71 -39.18,0 -77.41,9.48 -111.7,27.56l18.1 2.28c5.83,0.73 8.04,6.16 4.43,11.5 -1.64,2.43 -27.47,25.83 -31.81,29.89 0,4.9 8.51,37.87 8.14,44.26 -1,3.88 -3.09,5.84 -6.95,6.2zm119.79 256.64c-76.44,0 -138.62,-62.18 -138.62,-138.62 0,-76.44 62.18,-138.63 138.62,-138.63 76.44,0 138.62,62.19 138.62,138.63 0.01,76.44 -62.18,138.62 -138.62,138.62zm0 -263.25c-68.72,0 -124.63,55.91 -124.63,124.63 0,68.72 55.91,124.63 124.63,124.63 68.72,0 124.63,-55.91 124.63,-124.63 0,-68.72 -55.91,-124.63 -124.63,-124.63zm0 171.31c-25.74,0 -46.68,-20.94 -46.68,-46.68 0,-25.74 20.94,-46.69 46.68,-46.69 25.74,0 46.68,20.95 46.68,46.69 0,25.74 -20.94,46.68 -46.68,46.68zm0 -79.37c-18.02,0 -32.69,14.66 -32.69,32.69 0,18.02 14.67,32.69 32.69,32.69 18.02,0 32.69,-14.67 32.69,-32.69 0,-18.03 -14.66,-32.69 -32.69,-32.69zm-203.86 -118.34l3.34 -17.45 -31.29 -29.35c-4.24,-3.97 -1.85,-11.32 3.91,-12.04l42.57 -5.35 18.25 -38.84c2.47,-5.25 10.19,-5.25 12.66,0l18.25 38.84 1.48 0.18c5.18,-1.14 53.01,-38.66 134.7,-38.66 140,0 253.69,113.71 253.69,253.7 0,140 -113.7,253.7 -253.7,253.7 -140,0 -253.7,-113.7 -253.7,-253.7 0,-54.91 17.23,-107.09 49.84,-151.03zm68.63 -22.08c0.03,-0.1 0.06,-0.2 0.1,-0.3l0 0c2.08,-4.33 19.9,-19.65 25,-24.43l-31.61 -3.98c-2.38,-0.3 -4.44,-1.79 -5.46,-3.97l-13.55 -28.84 -13.55 28.84c-1.02,2.17 -3.08,3.67 -5.46,3.97l-31.62 3.97 23.25 21.8c1.74,1.64 2.53,4.07 2.08,6.42l-5.99 31.3c7.62,-4.2 21.34,-12.45 28.52,-15.66l0 0c2.03,-0.82 4.11,-0.52 6.14,0.29l27.92 15.37c-1.75,-9.13 -5.04,-23.09 -6.06,-31.74l0 0 0.29 -3.04zm135.23 270.83c-53.89,0 -97.73,-43.83 -97.73,-97.72 0,-53.89 43.84,-97.73 97.73,-97.73 53.89,0 97.73,43.84 97.73,97.73 0,53.89 -43.84,97.72 -97.73,97.72zm0 -181.45c-46.17,0 -83.73,37.56 -83.73,83.73 0,46.17 37.56,83.73 83.73,83.73 46.17,0 83.73,-37.56 83.73,-83.73 0,-46.17 -37.56,-83.73 -83.73,-83.73zm0 278.51c-107.4,0 -194.78,-87.38 -194.78,-194.78 0,-9.03 14,-9.03 14,0 0,99.68 81.1,180.78 180.78,180.78 9.03,0 9.03,14 0,14zm187.78 -187.78c-3.87,0 -7,-3.14 -7,-7 0,-99.69 -81.1,-180.78 -180.78,-180.78 -9.03,0 -9.03,-14 0,-14 107.4,0 194.78,87.38 194.78,194.78 0,3.86 -3.13,7 -7,7z"/>
  <path class="fil1" d="M135.02 89.71c0,4.9 8.51,37.87 8.14,44.26 -1,3.88 -3.09,5.84 -6.95,6.2 -4.42,-0.33 -34.8,-18.17 -40.96,-21.56 -4.28,2.35 -36.81,21.14 -39.57,21.42 -2.71,0.27 -5.06,-0.37 -6.87,-2.5 -21.35,36.47 -32.52,77.68 -32.52,120.66 0,132.17 107.54,239.71 239.71,239.71 132.18,0 239.71,-107.54 239.71,-239.71 0,-132.18 -107.53,-239.71 -239.71,-239.71 -39.18,0 -77.41,9.48 -111.7,27.56l18.1 2.28c5.83,0.73 8.04,6.16 4.43,11.5 -1.64,2.43 -27.47,25.83 -31.81,29.89zm-17.64 168.48c0,-76.44 62.18,-138.63 138.62,-138.63 76.44,0 138.62,62.19 138.62,138.63 0.01,76.44 -62.18,138.62 -138.62,138.62 -76.44,0 -138.62,-62.18 -138.62,-138.62zm-42.16 0c0,99.68 81.1,180.78 180.78,180.78 9.03,0 9.03,14 0,14 -107.4,0 -194.78,-87.38 -194.78,-194.78 0,-9.03 14,-9.03 14,0zm368.56 7c-3.87,0 -7,-3.14 -7,-7 0,-99.69 -81.1,-180.78 -180.78,-180.78 -9.03,0 -9.03,-14 0,-14 107.4,0 194.78,87.38 194.78,194.78 0,3.86 -3.13,7 -7,7z"/>
  <path class="fil2" d="M256 133.56c-68.72,0 -124.63,55.91 -124.63,124.63 0,68.72 55.91,124.63 124.63,124.63 68.72,0 124.63,-55.91 124.63,-124.63 0,-68.72 -55.91,-124.63 -124.63,-124.63zm-97.73 124.63c0,-53.89 43.84,-97.73 97.73,-97.73 53.89,0 97.73,43.84 97.73,97.73 0,53.89 -43.84,97.72 -97.73,97.72 -53.89,0 -97.73,-43.83 -97.73,-97.72z"/>
  <path class="fil1" d="M256 174.46c-46.17,0 -83.73,37.56 -83.73,83.73 0,46.17 37.56,83.73 83.73,83.73 46.17,0 83.73,-37.56 83.73,-83.73 0,-46.17 -37.56,-83.73 -83.73,-83.73zm0 37.04c25.74,0 46.68,20.95 46.68,46.69 0,25.74 -20.94,46.68 -46.68,46.68 -25.74,0 -46.68,-20.94 -46.68,-46.68 0,-25.74 20.94,-46.69 46.68,-46.69z"/>
  <path class="fil2" d="M256 225.5c-18.02,0 -32.69,14.66 -32.69,32.69 0,18.02 14.67,32.69 32.69,32.69 18.02,0 32.69,-14.67 32.69,-32.69 0,-18.03 -14.66,-32.69 -32.69,-32.69z"/>
  <path class="fil2" d="M126.54 119.86c-1.75,-9.13 -5.04,-23.09 -6.06,-31.74l0.29 -3.04 0.1 -0.3c2.08,-4.33 19.9,-19.65 25,-24.43l-31.61 -3.98c-2.38,-0.3 -4.44,-1.79 -5.46,-3.97l-13.55 -28.84 -13.55 28.84c-1.02,2.17 -3.08,3.67 -5.46,3.97l-31.62 3.97 23.25 21.8c1.74,1.64 2.53,4.07 2.08,6.42l-5.99 31.3c7.62,-4.2 21.34,-12.45 28.52,-15.66 2.03,-0.82 4.11,-0.52 6.14,0.29l27.92 15.37z"/>
 </g>
</svg>
