<?xml version="1.0" encoding="UTF-8"?>
<!DOCTYPE svg PUBLIC "-//W3C//DTD SVG 1.1//EN" "http://www.w3.org/Graphics/SVG/1.1/DTD/svg11.dtd">
<!-- Creator: CorelDRAW -->
<svg xmlns="http://www.w3.org/2000/svg" xml:space="preserve" width="512px" height="512px" version="1.1" style="shape-rendering:geometricPrecision; text-rendering:geometricPrecision; image-rendering:optimizeQuality; fill-rule:evenodd; clip-rule:evenodd"
viewBox="0 0 512 512"
 xmlns:xlink="http://www.w3.org/1999/xlink"
 xmlns:xodm="http://www.corel.com/coreldraw/odm/2003">
 <defs>
  <style type="text/css">
   <![CDATA[
    .fil0 {fill:url(#id0)}
   ]]>
  </style>
  <linearGradient id="id0" gradientUnits="userSpaceOnUse" x1="256" y1="0.11" x2="256" y2="511.89">
   <stop offset="0" style="stop-opacity:1; stop-color:#5CC6D0"/>
   <stop offset="0.490196" style="stop-opacity:1; stop-color:#A53692"/>
   <stop offset="1" style="stop-opacity:1; stop-color:#F06277"/>
  </linearGradient>
 </defs>
 <g id="Layer_x0020_1">
  <metadata id="CorelCorpID_0Corel-Layer"/>
  <path class="fil0" d="M136.21 140.17l-0.11 0 -0.05 0 -0.01 0 -0.05 0 -0.16 -0.01 -0.04 0 -0.01 0 -0.06 -0.01 -0.05 0 0 0 -0.06 -0.01 -0.05 0 -0.01 0 -0.05 -0.01 -0.05 0 -0.03 -0.01 -0.02 0 -0.06 -0.01 -0.04 0 -0.01 0 -0.06 -0.01 -0.05 -0.01 0 0 -0.11 -0.01 -0.01 -0.01 -0.04 0 -0.05 -0.01 -0.03 -0.01 -0.03 0 -0.05 -0.01 -0.04 -0.01 -0.02 0 -0.05 -0.01 -0.05 -0.02 -0.06 -0.01 -0.05 -0.01 -0.01 0 -0.04 -0.01 -0.06 -0.02 -0.02 0 -0.03 -0.01 -0.05 -0.02 -0.04 -0.01 -0.01 0 -0.06 -0.02 -0.05 -0.01 -0.05 -0.02 -0.06 -0.01 -0.01 -0.01 -0.04 -0.01 -0.05 -0.02 -0.03 0 -0.02 -0.01 -0.05 -0.02 -0.04 -0.02 -0.02 0 -0.05 -0.02 -0.05 -0.02 0 0 -0.05 -0.02 -0.05 -0.02 -0.02 0 -0.04 -0.02 -0.05 -0.02 -0.02 -0.01 -0.03 -0.01 -0.05 -0.02 -0.04 -0.02 -0.01 -0.01 -0.05 -0.02 -0.05 -0.02 0 0 -0.05 -0.02 -0.05 -0.03 -0.02 -0.01 -0.03 -0.01 -0.05 -0.03 -0.03 -0.01 -0.02 -0.01 -0.05 -0.03 -0.04 -0.02 -0.06 -0.03 -0.05 -0.03 -0.01 0 -37.58 -20.69 -37.59 20.69 0 0 -0.11 0.06 0 0 -0.11 0.06 0 0 -0.11 0.05 -0.01 0 -0.11 0.06 0 0 -0.11 0.05 0 0 -0.12 0.05 0 0 -0.11 0.05 -0.01 0 -0.11 0.04 0 0 -0.12 0.04 0 0 -0.11 0.05 -0.01 0 -0.11 0.03 0 0 -0.12 0.04 0 0 -0.12 0.03 0 0 -0.12 0.04 0 0 -0.12 0.03 0 0 -0.12 0.02 0 0 -0.12 0.03 0 0 -0.12 0.02 0 0 -0.12 0.02 0 0 -0.12 0.02 -0.01 0 -0.11 0.02 -0.01 0 -0.12 0.01 0 0 -0.12 0.02 0 0 -0.12 0.01 0 0 -0.12 0.01 0 0 -0.13 0 0 0 -0.12 0.01 0 0 -0.12 0 0 0 -0.12 0 0 0 -0.12 0 -0.01 0 -0.12 -0.01 0 0 -0.12 -0.01 0 0 -0.12 0 0 0 -0.12 -0.02 0 0 -0.12 -0.01 0 0 -0.12 -0.01 -0.01 0 -0.12 -0.02 0 0 -0.12 -0.02 0 0 -0.12 -0.02 0 0 -0.12 -0.02 0 0 -0.12 -0.03 0 0 -0.12 -0.03 0 0 -0.12 -0.03 0 0 -0.11 -0.03 0 0 -0.12 -0.03 0 0 -0.12 -0.04 0 0 -0.12 -0.04 0 0 -0.11 -0.04 0 0 -0.12 -0.04 0 0 -0.11 -0.04 0 0 -0.12 -0.05 0 0 -0.11 -0.05 0 0 -0.11 -0.05 -0.01 0 -0.11 -0.05 0 0 -0.11 -0.06 0 0 -0.11 -0.06 0 0 -0.11 -0.06 0 0 -0.11 -0.06 0 0 -0.11 -0.06 0 0 -0.1 -0.07 0 0 -0.11 -0.06 0 0 -0.11 -0.07 0 0 -0.1 -0.07 0 0 -0.1 -0.08 0 0 -0.1 -0.07 0 0 -0.02 -0.02 -0.09 -0.06 -0.01 -0.01 -0.02 -0.02 -0.03 -0.02 -0.02 -0.02 -0.01 -0.01 -0.06 -0.04 -0.02 -0.02 -0.02 -0.02 0 0 -0.05 -0.04 -0.02 -0.02 -0.03 -0.02 0 0 -0.02 -0.02 -0.02 -0.02 -0.02 -0.02 -0.12 -0.11 -0.01 -0.01 -0.02 -0.02 -0.06 -0.06 -0.01 0 -0.02 -0.02 -0.02 -0.02 -0.02 -0.02 -0.02 -0.02 -0.02 -0.03 -0.02 -0.02 -0.02 -0.02 -0.02 -0.02 -0.01 0 -0.01 -0.02 -0.02 -0.02 -0.02 -0.02 -0.02 -0.02 -0.01 -0.01 -0.01 -0.02 -0.02 -0.02 -0.02 -0.02 -0.02 -0.02 -0.02 -0.02 0 0 -0.02 -0.03 -0.02 -0.02 -0.02 -0.02 -0.02 -0.02 0 0 -0.02 -0.02 -0.02 -0.03 -0.02 -0.02 -0.02 -0.02 0 0 -0.02 -0.02 -0.01 -0.03 -0.02 -0.02 -0.02 -0.02 -0.01 -0.01 -0.01 -0.01c-21.35,36.47 -32.52,77.68 -32.52,120.66 0,132.17 107.54,239.71 239.71,239.71 132.18,0 239.71,-107.54 239.71,-239.71 0,-132.18 -107.53,-239.71 -239.71,-239.71 -39.18,0 -77.41,9.48 -111.7,27.56l18.1 2.28c2.69,0.34 4.94,2.2 5.78,4.78 0.25,0.76 0.36,1.55 0.34,2.33l0 0 -0.01 0.24 0 0.01 -0.01 0.12 0 0 -0.01 0.12 0 0 -0.03 0.24 0 0 -0.01 0.12 0 0.01 -0.02 0.11 0 0.01 -0.02 0.11 0 0.01 -0.03 0.11 0 0.01 -0.02 0.11 0 0.01 -0.03 0.11 0 0 -0.03 0.12 0 0 -0.03 0.12 0 0 -0.03 0.12 0 0 -0.04 0.11 0 0.01 -0.04 0.11 0 0 -0.08 0.23 0 0 -0.04 0.12 0 0 -0.05 0.11 0 0 -0.04 0.11 0 0 -0.05 0.11 0 0.01 -0.06 0.11 0 0 -0.05 0.1 0 0.01 -0.05 0.1 -0.01 0.01 -0.05 0.1 0 0.01 -0.06 0.1 0 0 -0.06 0.11 0 0 -0.07 0.1 0 0.01 -0.06 0.1 0 0 -0.07 0.1 0 0 -0.07 0.1 0 0.01 -0.07 0.1 0 0 -0.07 0.1 0 0 -0.08 0.1 0 0 -0.07 0.09 -0.01 0.01 -0.07 0.09 0 0 -0.08 0.1 -0.01 0 -0.08 0.09 0 0 -0.08 0.09 0 0.01 -0.09 0.09 0 0 -0.09 0.09 0 0 -0.09 0.09 0 0 -0.09 0.08 0 0.01 -31.29 29.34 0 0.01 8.06 42.14 0 0 0.02 0.12 0 0 0.02 0.13 0 0 0.02 0.12 0 0 0.02 0.13 0 0 0.01 0.12 0 0 0.01 0.13 0 0 0.01 0.12 0 0 0.01 0.13 0 0 0 0.12 0 0 0.01 0.12 0 0.01 0 0.12 0 0 -0.01 0.12 0 0 0 0.13 0 0 -0.01 0.12 0 0 -0.01 0.12 0 0 -0.01 0.13 0 0 -0.01 0.12 0 0 -0.01 0.12 0 0 -0.02 0.12 0 0 -0.02 0.12 0 0 -0.02 0.12 0 0 -0.03 0.12 0 0.01 -0.02 0.11 0 0.01 -0.03 0.11 0 0 -0.03 0.12 0 0 -0.03 0.12 0 0 -0.04 0.12 0 0 -0.03 0.12 0 0 -0.04 0.11 0 0 -0.04 0.12 0 0 -0.04 0.11 0 0 -0.05 0.11 0 0.01 -0.04 0.11 0 0 -0.05 0.11 0 0 -0.05 0.11 0 0 -0.05 0.11 0 0 -0.05 0.11 0 0 -0.06 0.11 0 0 -0.06 0.11 0 0 -0.06 0.11 0 0 -0.06 0.1 0 0 -0.06 0.11 0 0 -0.07 0.1 0 0 -0.06 0.1 0 0 -0.07 0.11 0 0 -0.07 0.1 0 0 -0.08 0.1 0 0 -0.07 0.09 0 0.01 -0.08 0.09 0 0 -0.07 0.1 0 0 -0.08 0.09 0 0 -0.09 0.09 0 0.01 -0.08 0.09 0 0 -0.08 0.09 0 0 -0.09 0.09 0 0 -0.09 0.08 0 0 -0.09 0.09 0 0 -0.09 0.08 0 0.01 -0.09 0.08 0 0 -0.1 0.08 0 0 -0.1 0.08 0 0 -0.1 0.08 0 0 -0.1 0.08 0 0 -0.1 0.07 0 0 -0.21 0.15 -0.02 0.01 -0.08 0.06 -0.04 0.02 -0.18 0.11 0 0 -0.06 0.04 -0.04 0.02 -0.11 0.06 -0.03 0.02 -0.18 0.1 -0.01 0 -0.12 0.06 0 0 -0.22 0.1 -0.03 0.01 -0.08 0.04 -0.04 0.01 -0.07 0.03 -0.01 0.01 -0.11 0.04 0 0 -0.07 0.02c-0.17,0.07 -0.34,0.12 -0.52,0.17l0 0 -0.06 0.02 -0.14 0.03 -0.04 0.01 -0.02 0.01 -0.1 0.02 -0.04 0.01 -0.06 0.01 -0.02 0.01 -0.12 0.02 0 0 -0.06 0.01 -0.18 0.03 -0.02 0 -0.07 0.01 -0.03 0.01 -0.04 0 -0.2 0.02 0 0.01 -0.07 0 -0.05 0.01 -0.02 0 -0.07 0 -0.03 0 -0.03 0.01 -0.21 0.01 -0.01 0 -0.19 0zm119.79 256.64c-76.44,0 -138.62,-62.18 -138.62,-138.62 0,-76.44 62.18,-138.63 138.62,-138.63 76.44,0 138.62,62.19 138.62,138.63 0.01,76.44 -62.18,138.62 -138.62,138.62zm0 -263.25c-68.72,0 -124.63,55.91 -124.63,124.63 0,68.72 55.91,124.63 124.63,124.63 68.72,0 124.63,-55.91 124.63,-124.63 0,-68.72 -55.91,-124.63 -124.63,-124.63zm0 171.31c-25.74,0 -46.68,-20.94 -46.68,-46.68 0,-25.74 20.94,-46.69 46.68,-46.69 25.74,0 46.68,20.95 46.68,46.69 0,25.74 -20.94,46.68 -46.68,46.68zm0 -79.37c-18.02,0 -32.69,14.66 -32.69,32.69 0,18.02 14.67,32.69 32.69,32.69 18.02,0 32.69,-14.67 32.69,-32.69 0,-18.03 -14.66,-32.69 -32.69,-32.69zm-203.86 -118.34l3.34 -17.45 -31.29 -29.35c-1.98,-1.85 -2.71,-4.68 -1.87,-7.26 0.84,-2.58 3.09,-4.44 5.78,-4.78l42.57 -5.35 18.25 -38.84c1.15,-2.45 3.62,-4.02 6.33,-4.02l0 0c2.71,0 5.18,1.57 6.33,4.02l18.25 38.84 1.48 0.18c40.32,-25.3 86.83,-38.66 134.69,-38.66l0.01 0c0,0 0,0 0,0 67.77,0 131.47,26.39 179.38,74.3 47.92,47.92 74.31,111.63 74.31,179.4 0,67.76 -26.39,131.47 -74.31,179.39 -47.91,47.92 -111.62,74.31 -179.39,74.31 -67.77,0 -131.48,-26.39 -179.39,-74.31 -47.92,-47.91 -74.31,-111.63 -74.31,-179.39 0,-54.91 17.23,-107.09 49.84,-151.03zm68.63 -22.08c0.03,-0.1 0.06,-0.2 0.1,-0.3l0 0 0.04 -0.11 0 0 0.13 -0.3 0 0 0.05 -0.1 0 0 0.09 -0.19 0 0c0.07,-0.13 0.14,-0.26 0.21,-0.39l0 0c0.33,-0.56 0.75,-1.09 1.24,-1.55l23.24 -21.79 -31.61 -3.98c-2.38,-0.3 -4.44,-1.79 -5.46,-3.97l-13.55 -28.84 -13.55 28.84c-1.02,2.17 -3.08,3.67 -5.46,3.97l-31.62 3.97 23.25 21.8c1.74,1.64 2.53,4.07 2.08,6.42l-4.34 22.65 -0.02 0.15 -1.63 8.5 27.91 -15.37 0.1 -0.05 0.1 -0.05 0.1 -0.05 0.1 -0.05 0.21 -0.09 0 0 0.05 -0.02 0.1 -0.05 0.05 -0.02 0 0 0.05 -0.02 0.06 -0.02 0 0 0.05 -0.02 0.05 -0.01 0 -0.01 0.05 -0.01 0.05 -0.02 0 0 0.06 -0.02 0.05 -0.02 0 0 0.05 -0.01 0.05 -0.02 0 0 0.06 -0.02 0.05 -0.01 0 0 0.05 -0.02 0.32 -0.08 0.05 -0.01 0 0 0.06 -0.01 0.21 -0.04 0.06 -0.01 0 0 0.05 -0.01 0.05 -0.01 0 0 0.06 -0.01 0.05 -0.01 0 0 0.06 0 0.05 -0.01 0.05 -0.01 0.06 0 0 0 0.05 -0.01 0.06 0 0 0 0.05 -0.01 0.05 0 0.01 0 0.05 -0.01 0.11 -0.01 0.05 0 0 0 0.06 0 0.05 0 0 0 0.06 0 0.11 -0.01 0.05 0 0 0 0.05 0 0.06 0 0 0.01 0.05 0 0.06 0 0 0 0.05 0 0.06 0 0 0 0.05 0 0.05 0.01 0.01 0 0.05 0 0.05 0.01 0 0 0.06 0 0.05 0.01 0 0 0.06 0 0.05 0.01 0 0 0.06 0 0.05 0.01 0 0 0.05 0.01 0.06 0 0 0 0.05 0.01 0.05 0.01 0.01 0 0.05 0.01 0.05 0.01 0 0 0.06 0.01 0.05 0.01 0 0 0.06 0.01 0.05 0.01 0 0 0.05 0.01 0.05 0.01 0.01 0 0.05 0.01 0.05 0.01 0 0 0.06 0.02 0.05 0.01 0 0 0.05 0.01 0.05 0.02 0.01 0 0.05 0.01 0.05 0.02 0 0 0.05 0.01 0.06 0.02 0 0 0.05 0.02 0.05 0.01 0 0 0.05 0.02 0.06 0.02 0 0 0.05 0.02 0.05 0.01 0 0 0.05 0.02 0.05 0.02 0 0 0.06 0.02 0.05 0.02 0 0 0.05 0.02 0.05 0.02 0 0 0.05 0.03 0.05 0.02 0 0 0.05 0.02 0.05 0.02 0.01 0 0.05 0.03 0.04 0.02 0.01 0 0.05 0.02 0.04 0.03 0.01 0 0.05 0.02 0.05 0.03 0 0 0.05 0.02 0.04 0.03 0.01 0 0.05 0.03 0.04 0.02 0 0 27.92 15.37 -5.99 -31.3 0 0 -0.02 -0.11 0 0 -0.02 -0.11 0 0 -0.02 -0.11 0 0 -0.01 -0.11 0 0 -0.01 -0.11 0 0 -0.01 -0.11 -0.01 0 0 -0.11 -0.01 0 0 -0.11 0 0 -0.01 -0.11 0 0 0 -0.11 0 0 0 -0.11 -0.01 0 0 -0.11 0 -0.11 0.01 0 0 -0.11 0 0 0 -0.11 0 0 0.01 -0.11 0 0 0.02 -0.22 0 0 0.01 -0.11 0 0 0.01 -0.11 0 0 0.01 -0.11 0.01 0 0.01 -0.11 0 0 0.04 -0.21 0 0 0.02 -0.11 0 0 0.02 -0.1 0 0 0.03 -0.11 0 0 0.05 -0.21 0 0 0.06 -0.21 0 0 0.04 -0.11 0 0zm135.23 270.83c-53.89,0 -97.73,-43.83 -97.73,-97.72 0,-53.89 43.84,-97.73 97.73,-97.73 53.89,0 97.73,43.84 97.73,97.73 0,53.89 -43.84,97.72 -97.73,97.72zm0 -181.45c-46.17,0 -83.73,37.56 -83.73,83.73 0,46.17 37.56,83.73 83.73,83.73 46.17,0 83.73,-37.56 83.73,-83.73 0,-46.17 -37.56,-83.73 -83.73,-83.73zm0 278.51c-107.4,0 -194.78,-87.38 -194.78,-194.78 0,-3.86 3.14,-7 7,-7 3.87,0 7,3.14 7,7 0,99.68 81.1,180.78 180.78,180.78 3.86,0 7,3.13 7,7 0,3.86 -3.14,7 -7,7zm187.78 -187.78c-3.87,0 -7,-3.14 -7,-7 0,-99.69 -81.1,-180.78 -180.78,-180.78 -3.86,0 -7,-3.14 -7,-7 0,-3.87 3.14,-7 7,-7 107.4,0 194.78,87.38 194.78,194.78 0,3.86 -3.13,7 -7,7z"/>
 </g>
</svg>
