<?xml version="1.0" encoding="UTF-8"?>
<!DOCTYPE svg PUBLIC "-//W3C//DTD SVG 1.1//EN" "http://www.w3.org/Graphics/SVG/1.1/DTD/svg11.dtd">
<!-- Creator: CorelDRAW -->
<svg xmlns="http://www.w3.org/2000/svg" xml:space="preserve" width="512px" height="512px" style="shape-rendering:geometricPrecision; text-rendering:geometricPrecision; image-rendering:optimizeQuality; fill-rule:evenodd; clip-rule:evenodd"
viewBox="0 0 512 512"
 xmlns:xlink="http://www.w3.org/1999/xlink">
 <defs>
  <style type="text/css">
   <![CDATA[
    .fil2 {fill:#F9F9F9}
    .fil0 {fill:#52ABB3}
    .fil1 {fill:#AADDE3}
   ]]>
  </style>
 </defs>
 <g id="Layer_x0020_1">
  <metadata id="CorelCorpID_0Corel-Layer"/>
  <path class="fil0" d="M136.21 140.169c-4.41616,-0.329529 -34.7977,-18.169 -40.9596,-21.5611 -4.2756,2.35394 -36.8103,21.1465 -39.573,21.4205 -2.71182,0.268111 -5.05986,-0.368505 -6.86577,-2.50276 -21.3473,36.4737 -32.5182,77.6861 -32.5182,120.663 0,132.174 107.533,239.708 239.707,239.708 132.175,0 239.707,-107.533 239.707,-239.708 0,-132.175 -107.53,-239.708 -239.705,-239.708 -39.1844,0 -77.4085,9.47601 -111.698,27.5611l18.0969 2.27599c5.82876,0.732286 8.03861,6.16419 4.43505,11.5004 -1.64174,2.4319 -27.4796,25.8272 -31.819,29.8962 0,4.89096 8.51814,37.8663 8.14373,44.2549 -1.00158,3.87639 -3.09332,5.84529 -6.94963,6.19963zm119.79 256.645c-76.4376,0 -138.624,-62.1876 -138.624,-138.626 0,-76.4376 62.1864,-138.625 138.624,-138.625 76.4376,0 138.624,62.1864 138.624,138.625 0.00118111,76.4388 -62.1864,138.626 -138.624,138.626zm0 -263.257c-68.7215,0 -124.63,55.9088 -124.63,124.631 0,68.7215 55.91,124.63 124.63,124.63 68.7215,0 124.63,-55.9088 124.63,-124.631 0,-68.7215 -55.9088,-124.63 -124.63,-124.63zm0 171.316c-25.741,0 -46.6832,-20.9422 -46.6832,-46.6832 0,-25.7434 20.9422,-46.6856 46.6832,-46.6856 25.7422,0 46.6832,20.9434 46.6832,46.6856 0,25.7398 -20.941,46.6832 -46.6832,46.6832zm0 -79.375c-18.0249,0 -32.6895,14.6646 -32.6895,32.6918 0,18.0249 14.6646,32.6895 32.6895,32.6895 18.0249,0 32.6895,-14.6646 32.6895,-32.6895 0,-18.0272 -14.6634,-32.6918 -32.6895,-32.6918zm-203.857 -118.34l3.33899 -17.4438 -31.2958 -29.3505c-4.23545,-3.97324 -1.84961,-11.3221 3.913,-12.0461l42.5718 -5.35159 18.2445 -38.8359c2.47087,-5.25356 10.1977,-5.25238 12.6662,0.00118111l18.2445 38.8359 1.48465 0.186615c5.17443,-1.14449 53.008,-38.6682 134.702,-38.667 139.993,0.00236221 253.687,113.709 253.687,253.7 0,140 -113.699,253.702 -253.7,253.702 -140.001,0 -253.7,-113.702 -253.7,-253.702 0,-54.9073 17.2323,-107.092 49.8439,-151.029zm68.6234 -22.0737c0.033071,-0.103937 0.067323,-0.206694 0.1063,-0.308269l0.00118111 0c2.07166,-4.32285 19.8957,-19.6442 24.9993,-24.43l-31.6147 -3.97442c-2.37993,-0.29882 -4.43978,-1.79646 -5.46025,-3.96734l-13.5485 -28.8438 -13.5508 28.8426c-1.02048,2.16969 -3.08032,3.66733 -5.46025,3.96615l-31.617 3.97442 23.243 21.7985c1.74922,1.64056 2.53702,4.063 2.08465,6.41813l-5.98939 31.2981c7.62404,-4.19765 21.339,-12.4489 28.5166,-15.6615l0 -0.00118111c2.03741,-0.819688 4.11734,-0.517324 6.14766,0.296458l27.9131 15.3674c-1.74804,-9.13349 -5.03505,-23.0894 -6.05789,-31.7399l-0.00118111 0 0.28819 -3.03544zm135.233 270.83c-53.8868,0 -97.7259,-43.8391 -97.7259,-97.7259 0,-53.8868 43.8403,-97.7283 97.7259,-97.7283 53.8868,0 97.7271,43.8403 97.7271,97.7283 0,53.8868 -43.8403,97.7259 -97.7271,97.7259zm0 -181.459c-46.1694,0 -83.7321,37.5627 -83.7321,83.7345 0,46.1683 37.5627,83.731 83.7321,83.731 46.1694,0 83.7333,-37.5615 83.7333,-83.731 0,-46.1718 -37.5639,-83.7345 -83.7333,-83.7345zm0 278.511c-107.399,0 -194.776,-87.3759 -194.776,-194.776 0,-9.02956 13.9937,-9.02956 13.9937,0 0,99.6842 81.0995,180.782 180.782,180.782 9.02956,0 9.02956,13.9937 0,13.9937zm187.779 -187.78c-3.86458,0 -6.99687,-3.13229 -6.99687,-6.99687 0,-99.6842 -81.0983,-180.782 -180.782,-180.782 -9.02956,0 -9.02956,-13.9937 0,-13.9937 107.4,0 194.776,87.377 194.776,194.776 0,3.86576 -3.13111,6.99687 -6.99687,6.99687z"/>
  <path class="fil1" d="M135.016 89.7144c0,4.89096 8.51814,37.8663 8.14373,44.2549 -1.00158,3.87639 -3.09332,5.84529 -6.94963,6.19963 -4.41616,-0.329529 -34.7977,-18.169 -40.9596,-21.5611 -4.2756,2.35394 -36.8103,21.1465 -39.573,21.4205 -2.71182,0.268111 -5.05986,-0.368505 -6.86577,-2.50276 -21.3473,36.4737 -32.5182,77.6861 -32.5182,120.663 0,132.174 107.533,239.708 239.707,239.708 132.175,0 239.707,-107.533 239.707,-239.708 0,-132.175 -107.53,-239.708 -239.705,-239.708 -39.1844,0 -77.4085,9.47601 -111.698,27.5611l18.0969 2.27599c5.82876,0.732286 8.03861,6.16419 4.43505,11.5004 -1.64174,2.4319 -27.4796,25.8272 -31.819,29.8962zm-17.6398 168.473c0,-76.4376 62.1864,-138.625 138.624,-138.625 76.4376,0 138.624,62.1864 138.624,138.625 0.00118111,76.4388 -62.1864,138.626 -138.624,138.626 -76.4376,0 -138.624,-62.1876 -138.624,-138.626zm-42.1584 0.00236221c0,99.6842 81.0995,180.782 180.782,180.782 9.02956,0 9.02956,13.9937 0,13.9937 -107.399,0 -194.776,-87.3759 -194.776,-194.776 0,-9.02956 13.9937,-9.02956 13.9937,0zm368.562 6.99569c-3.86458,0 -6.99687,-3.13229 -6.99687,-6.99687 0,-99.6842 -81.0983,-180.782 -180.782,-180.782 -9.02956,0 -9.02956,-13.9937 0,-13.9937 107.4,0 194.776,87.377 194.776,194.776 0,3.86576 -3.13111,6.99687 -6.99687,6.99687z"/>
  <path class="fil2" d="M256 133.557c-68.7215,0 -124.63,55.9088 -124.63,124.631 0,68.7215 55.91,124.63 124.63,124.63 68.7215,0 124.63,-55.9088 124.63,-124.631 0,-68.7215 -55.9088,-124.63 -124.63,-124.63zm-97.7259 124.631c0,-53.8868 43.8403,-97.7283 97.7259,-97.7283 53.8868,0 97.7271,43.8403 97.7271,97.7283 0,53.8868 -43.8403,97.7259 -97.7271,97.7259 -53.8868,0 -97.7259,-43.8391 -97.7259,-97.7259z"/>
  <path class="fil1" d="M256 174.455c-46.1694,0 -83.7321,37.5627 -83.7321,83.7345 0,46.1683 37.5627,83.731 83.7321,83.731 46.1694,0 83.7333,-37.5615 83.7333,-83.731 0,-46.1718 -37.5639,-83.7345 -83.7333,-83.7345zm0 37.0489c25.7422,0 46.6832,20.9434 46.6832,46.6856 0,25.7398 -20.941,46.6832 -46.6832,46.6832 -25.741,0 -46.6832,-20.9422 -46.6832,-46.6832 0,-25.7434 20.9422,-46.6856 46.6832,-46.6856z"/>
  <path class="fil2" d="M256 225.498c-18.0249,0 -32.6895,14.6646 -32.6895,32.6918 0,18.0249 14.6646,32.6895 32.6895,32.6895 18.0249,0 32.6895,-14.6646 32.6895,-32.6895 0,-18.0272 -14.6634,-32.6918 -32.6895,-32.6918z"/>
  <path class="fil2" d="M126.538 119.86c-1.74804,-9.13349 -5.03505,-23.0894 -6.05907,-31.7399l0.28819 -3.03544 0.107481 -0.308269c2.07166,-4.32285 19.8957,-19.6442 24.9993,-24.43l-31.6147 -3.97442c-2.37993,-0.29882 -4.43978,-1.79646 -5.46025,-3.96734l-13.5485 -28.8438 -13.5508 28.8426c-1.02048,2.16969 -3.08032,3.66733 -5.46025,3.96615l-31.617 3.97442 23.243 21.7985c1.74922,1.64056 2.53702,4.063 2.08465,6.41813l-5.98939 31.2981c7.62404,-4.19765 21.339,-12.4489 28.5166,-15.6626 2.03741,-0.819688 4.11734,-0.517324 6.14766,0.296458l27.9131 15.3674z"/>
 </g>
</svg>
