<?xml version="1.0" encoding="UTF-8" standalone="no"?> <svg width="512" height="512" viewBox="0 0 512 512" fill="none" xmlns="http://www.w3.org/2000/svg">
<path d="M468 408C472.152 408.004 476.252 407.079 480 405.293V412C479.997 415.182 478.731 418.232 476.481 420.481C474.232 422.731 471.182 423.997 468 424H44C40.8185 423.997 37.7682 422.731 35.5185 420.481C33.2688 418.232 32.0034 415.182 32 412V405.293C35.7481 407.079 39.8482 408.004 44 408H468ZM200 216C198.418 216 196.871 216.469 195.555 217.348C194.24 218.227 193.214 219.477 192.609 220.939C192.003 222.4 191.845 224.009 192.154 225.561C192.462 227.113 193.224 228.538 194.343 229.657C195.462 230.776 196.887 231.538 198.439 231.846C199.991 232.155 201.6 231.997 203.061 231.391C204.523 230.786 205.773 229.76 206.652 228.445C207.531 227.129 208 225.582 208 224C207.998 221.879 207.154 219.846 205.654 218.346C204.154 216.846 202.121 216.002 200 216V216ZM48 448H80V440H48V448ZM336 224C336 298.99 274.991 360 200 360C125.009 360 64 298.99 64 224C64 149.01 125.009 88 200 88C274.991 88 336 149.01 336 224ZM145.3 154.6C145.874 155.48 146.615 156.238 147.482 156.832C148.349 157.425 149.324 157.842 150.353 158.059C151.381 158.275 152.441 158.287 153.474 158.094C154.507 157.901 155.491 157.506 156.371 156.932C169.347 148.471 184.509 143.977 200 144C204.882 143.999 209.753 144.441 214.555 145.319C215.593 145.521 216.661 145.514 217.696 145.301C218.732 145.087 219.715 144.67 220.588 144.074C221.462 143.478 222.208 142.715 222.785 141.829C223.362 140.943 223.757 139.951 223.948 138.911C224.139 137.871 224.122 136.803 223.898 135.77C223.674 134.736 223.247 133.758 222.642 132.89C222.037 132.023 221.267 131.284 220.375 130.716C219.483 130.149 218.487 129.763 217.445 129.583C211.69 128.529 205.851 127.999 200 128C181.405 127.975 163.206 133.372 147.63 143.53C145.853 144.689 144.61 146.507 144.173 148.583C143.736 150.658 144.141 152.823 145.3 154.6V154.6ZM200 200C195.253 200 190.613 201.408 186.666 204.045C182.72 206.682 179.643 210.43 177.827 214.816C176.01 219.201 175.535 224.027 176.461 228.682C177.387 233.338 179.673 237.614 183.029 240.971C186.386 244.327 190.662 246.613 195.318 247.539C199.973 248.465 204.799 247.99 209.184 246.173C213.57 244.357 217.318 241.28 219.955 237.334C222.592 233.387 224 228.747 224 224C223.993 217.637 221.462 211.537 216.963 207.037C212.463 202.538 206.363 200.007 200 200ZM269.492 278.581C267.949 277.124 265.891 276.34 263.77 276.401C261.649 276.462 259.64 277.363 258.183 278.906C250.732 286.866 241.719 293.202 231.708 297.52C221.697 301.838 210.903 304.044 200 304C185.597 303.997 171.461 300.107 159.085 292.739C146.709 285.371 136.551 274.799 129.683 262.139C122.815 249.478 119.491 235.199 120.064 220.807C120.636 206.415 125.082 192.444 132.933 180.369C134.045 178.592 134.416 176.45 133.965 174.403C133.514 172.356 132.278 170.568 130.522 169.423C128.766 168.278 126.631 167.868 124.576 168.281C122.521 168.694 120.71 169.897 119.533 171.631C106.457 191.723 101.371 215.98 105.275 239.633C109.179 263.285 121.79 284.621 140.629 299.445C159.468 314.27 183.172 321.51 207.079 319.742C230.986 317.974 253.367 307.325 269.82 289.891C270.541 289.127 271.105 288.228 271.479 287.246C271.852 286.264 272.029 285.218 271.999 284.168C271.968 283.118 271.731 282.084 271.301 281.125C270.871 280.167 270.256 279.302 269.492 278.581ZM274.054 162.906C268.58 156.277 262.244 150.409 255.215 145.459C253.48 144.237 251.331 143.754 249.24 144.117C247.15 144.479 245.288 145.658 244.066 147.393C242.845 149.127 242.362 151.276 242.724 153.367C243.087 155.458 244.265 157.319 246 158.541C251.863 162.67 257.148 167.564 261.714 173.094C262.382 173.908 263.203 174.583 264.132 175.078C265.061 175.574 266.079 175.882 267.127 175.984C268.175 176.086 269.232 175.98 270.239 175.672C271.246 175.364 272.182 174.86 272.994 174.19C273.806 173.52 274.478 172.695 274.97 171.765C275.463 170.834 275.767 169.816 275.865 168.767C275.964 167.719 275.854 166.662 275.542 165.656C275.231 164.65 274.724 163.716 274.051 162.906H274.054ZM432 448H464V440H432V448ZM442.283 337.484C440.531 336.514 438.563 335.999 436.561 335.984C434.558 335.969 432.583 336.456 430.817 337.4C429.05 338.344 427.548 339.715 426.448 341.388C425.347 343.062 424.682 344.984 424.515 346.98C424.347 348.975 424.682 350.981 425.488 352.815C426.295 354.648 427.547 356.251 429.131 357.476C430.716 358.701 432.581 359.51 434.559 359.83C436.536 360.149 438.561 359.969 440.451 359.305L436.142 356.934C435.222 356.427 434.41 355.744 433.753 354.924C433.097 354.104 432.608 353.162 432.316 352.153C432.023 351.144 431.932 350.087 432.048 349.043C432.164 347.999 432.484 346.987 432.991 346.067C433.498 345.147 434.181 344.335 435.001 343.678C435.821 343.022 436.763 342.533 437.772 342.241C438.781 341.948 439.838 341.857 440.882 341.973C441.926 342.089 442.938 342.409 443.858 342.916L448.172 345.291C448.123 345.079 448.082 344.865 448.021 344.654C447.586 343.139 446.855 341.725 445.87 340.494C444.885 339.264 443.666 338.24 442.283 337.484V337.484ZM392 88C386.34 88.0023 380.863 90.0047 376.537 93.6536C372.21 97.3025 369.312 102.363 368.355 107.941C367.398 113.52 368.443 119.257 371.306 124.139C374.169 129.021 378.665 132.735 384 134.624V112C384 109.878 384.843 107.843 386.343 106.343C387.843 104.843 389.878 104 392 104C394.122 104 396.157 104.843 397.657 106.343C399.157 107.843 400 109.878 400 112V134.624C405.335 132.735 409.831 129.021 412.694 124.139C415.557 119.257 416.602 113.52 415.645 107.941C414.688 102.363 411.79 97.3025 407.463 93.6536C403.137 90.0047 397.66 88.0023 392 88V88ZM480 68V380C479.997 383.182 478.731 386.232 476.481 388.481C474.232 390.731 471.182 391.997 468 392H44C40.8185 391.997 37.7682 390.731 35.5185 388.481C33.2688 386.232 32.0034 383.182 32 380V68C32.0034 64.8185 33.2688 61.7682 35.5185 59.5185C37.7682 57.2688 40.8185 56.0034 44 56H468C471.182 56.0034 474.232 57.2688 476.481 59.5185C478.731 61.7682 479.997 64.8185 480 68ZM352 224C352 140.187 283.813 72 200 72C116.187 72 48 140.187 48 224C48 307.813 116.187 376 200 376C283.813 376 352 307.813 352 224ZM400 151.2C409.712 149.217 418.343 143.699 424.218 135.715C430.093 127.731 432.794 117.85 431.797 107.988C430.801 98.1254 426.178 88.9842 418.825 82.3365C411.472 75.6888 401.913 72.0082 392 72.0082C382.087 72.0082 372.528 75.6888 365.175 82.3365C357.822 88.9842 353.199 98.1254 352.203 107.988C351.206 117.85 353.907 127.731 359.782 135.715C365.657 143.699 374.288 149.217 384 151.2V214.88L369.935 264.107C365.083 264.553 360.49 266.498 356.793 269.671C353.095 272.844 350.476 277.089 349.299 281.817L349.061 282.772C348.183 286.239 348.112 289.862 348.854 293.361C349.596 296.859 351.131 300.141 353.34 302.954C354.551 304.503 355.951 305.895 357.506 307.099L354.037 314.037L340.422 320.845C339.474 321.31 338.627 321.958 337.931 322.751C337.235 323.545 336.702 324.469 336.365 325.469C336.027 326.469 335.89 327.527 335.963 328.58C336.036 329.633 336.317 330.662 336.789 331.606C337.261 332.55 337.916 333.392 338.715 334.082C339.514 334.772 340.441 335.297 341.444 335.627C342.447 335.957 343.506 336.085 344.558 336.004C345.611 335.923 346.637 335.635 347.578 335.155L363.578 327.155C365.126 326.381 366.381 325.126 367.155 323.578L372.967 311.954C378.021 311.729 382.867 309.878 386.783 306.676C390.699 303.473 393.476 299.092 394.7 294.183L394.938 293.228C395.816 289.761 395.887 286.138 395.145 282.639C394.403 279.141 392.868 275.859 390.659 273.046C389.176 271.147 387.412 269.486 385.427 268.121L399.692 218.2C399.896 217.485 400 216.744 400 216V151.2ZM432 168V160C432 157.878 431.157 155.843 429.657 154.343C428.157 152.843 426.122 152 424 152C421.878 152 419.843 152.843 418.343 154.343C416.843 155.843 416 157.878 416 160V168C416 170.122 416.843 172.157 418.343 173.657C419.843 175.157 421.878 176 424 176C426.122 176 428.157 175.157 429.657 173.657C431.157 172.157 432 170.122 432 168ZM424 184C421.878 184 419.843 184.843 418.343 186.343C416.843 187.843 416 189.878 416 192V216C416 218.122 416.843 220.157 418.343 221.657C419.843 223.157 421.878 224 424 224C426.122 224 428.157 223.157 429.657 221.657C431.157 220.157 432 218.122 432 216V192C432 189.878 431.157 187.843 429.657 186.343C428.157 184.843 426.122 184 424 184ZM408 276C408 281.538 409.642 286.951 412.719 291.556C415.796 296.161 420.169 299.749 425.285 301.869C430.401 303.988 436.031 304.542 441.463 303.462C446.894 302.382 451.883 299.715 455.799 295.799C459.715 291.883 462.382 286.894 463.462 281.463C464.542 276.031 463.988 270.401 461.869 265.285C459.749 260.169 456.161 255.796 451.556 252.719C446.951 249.642 441.538 248 436 248C428.577 248.008 421.46 250.961 416.21 256.21C410.961 261.46 408.008 268.577 408 276V276ZM463.388 340.2C461.584 333.978 457.678 328.575 452.337 324.91C446.995 321.245 440.548 319.545 434.094 320.101C427.64 320.656 421.579 323.433 416.942 327.956C412.305 332.48 409.381 338.472 408.666 344.91C407.952 351.349 409.492 357.836 413.025 363.266C416.557 368.696 421.863 372.733 428.038 374.69C434.214 376.646 440.876 376.401 446.891 373.996C452.906 371.591 457.901 367.175 461.025 361.5C462.808 358.282 463.935 354.743 464.34 351.087C464.746 347.431 464.422 343.73 463.388 340.2V340.2ZM436 288C437.684 287.999 439.35 287.642 440.887 286.953C442.424 286.263 443.798 285.257 444.919 284H440C437.878 284 435.843 283.157 434.343 281.657C432.843 280.157 432 278.122 432 276C432 273.878 432.843 271.843 434.343 270.343C435.843 268.843 437.878 268 440 268H444.919C443.584 266.511 441.897 265.38 440.013 264.71C438.129 264.039 436.107 263.851 434.131 264.161C432.155 264.472 430.289 265.271 428.701 266.487C427.113 267.704 425.855 269.297 425.04 271.124C424.226 272.95 423.881 274.952 424.037 276.945C424.194 278.939 424.846 280.862 425.935 282.539C427.025 284.217 428.516 285.595 430.274 286.549C432.032 287.502 434 288.001 436 288V288ZM372.12 280C370.441 279.998 368.81 280.558 367.487 281.591C366.164 282.624 365.225 284.071 364.82 285.7L364.581 286.655C364.341 287.613 364.293 288.609 364.438 289.587C364.584 290.564 364.92 291.502 365.428 292.349C365.936 293.197 366.607 293.935 367.4 294.523C368.194 295.111 369.096 295.537 370.054 295.777C371.012 296.017 372.008 296.065 372.986 295.92C373.963 295.774 374.901 295.438 375.749 294.93C376.596 294.422 377.334 293.751 377.922 292.958C378.51 292.164 378.936 291.262 379.176 290.304L379.415 289.349C379.692 288.24 379.713 287.082 379.476 285.964C379.238 284.845 378.749 283.796 378.046 282.894C377.342 281.993 376.442 281.265 375.414 280.763C374.387 280.262 373.258 280.002 372.115 280.002L372.12 280Z" fill="url(#paint0_linear_15_80639)"/>
<defs>
<linearGradient id="paint0_linear_15_80639" x1="51.759" y1="451.759" x2="460.241" y2="43.278" gradientUnits="userSpaceOnUse">
<stop stop-color="#41DFD0"/>
<stop offset="1" stop-color="#EE83EF"/>
</linearGradient>
</defs>
</svg>
