<?xml version="1.0" encoding="UTF-8" standalone="no"?> <svg id="Line_Gradient" data-name="Line Gradient" xmlns="http://www.w3.org/2000/svg" xmlns:xlink="http://www.w3.org/1999/xlink" viewBox="0 0 64 64"><defs><style>.cls-1{fill:url(#linear-gradient);}</style><linearGradient id="linear-gradient" x1="3.99892" y1="31.98137" x2="60.00446" y2="31.98137" gradientUnits="userSpaceOnUse"><stop offset="0" stop-color="#ffa68d"/><stop offset="1" stop-color="#fd3a84"/></linearGradient></defs><title>1</title><path class="cls-1" d="M58.24609,7.4502a5.52581,5.52581,0,0,0-8.38181.545,5.89156,5.89156,0,0,0-4.42093-2.23837,5.2232,5.2232,0,0,0-3.95214,1.68456c-.09607.09973-.18976.21374-.28375.3283a22.007,22.007,0,0,0-6.89691-1.11834c-14.85889-.25562-25.941,15.21884-21.02027,29.19944a.99987.99987,0,0,0,1.89624-.635C9.87931,19.9814,24.807,4.60275,40.18555,9.5414a6.77241,6.77241,0,0,0,1.17187,6.84923l5.02832,5.665a4.57705,4.57705,0,0,0,6.9112.04175,20.02443,20.02443,0,0,1-2.251,17.96314,1.00026,1.00026,0,1,0,1.6582,1.11914,22.15722,22.15722,0,0,0,2.09969-20.76924l3.5673-4.01787A6.74469,6.74469,0,0,0,58.24609,7.4502ZM56.877,15.0625c-.77688.87594-4.3229,4.86823-5.02441,5.65918a2.64843,2.64843,0,0,1-3.97363.00293L42.85254,15.0625c-3.27848-3.71994,1.17233-10.128,5.29406-5.99022l.96961,1.09374a1.02933,1.02933,0,0,0,1.49609,0L51.582,9.07324C55.66354,4.91057,60.16835,11.3649,56.877,15.0625Zm-1.14062-1.01563a.99946.99946,0,0,1-1.49219-1.33007,1.28132,1.28132,0,0,0,.0108-1.44043A1.00151,1.00151,0,0,1,54.375,9.2832C56.55982,9.3947,57.06813,12.64952,55.73633,14.04687Zm-9.1709,33.23438a22.06233,22.06233,0,0,1-12.255,3.69443c-1.0576-.13621-3.21528.38374-3.2011-1.21787a1.00241,1.00241,0,0,1,1.09863-.8916,20.18536,20.18536,0,0,0,13.25-3.251A1.00045,1.00045,0,0,1,46.56543,47.28125ZM43.24609,28.81348A8.94629,8.94629,0,0,0,34.31055,19.877C22.46548,20.346,22.4678,37.28152,34.31064,37.749A8.94609,8.94609,0,0,0,43.24609,28.81348Zm-15.87109,0A6.94368,6.94368,0,0,1,34.31055,21.877c9.17876.3255,9.17741,13.54772-.00012,13.87208A6.94346,6.94346,0,0,1,27.375,28.81348ZM19.24219,22.252a16.36932,16.36932,0,0,1,10.65326-9.2695.99983.99983,0,0,1,.53717,1.92575,14.37962,14.37962,0,0,0-9.35645,8.14258,1.0002,1.0002,0,0,1-1.834-.79883Zm19.59472,6.56153a4.527,4.527,0,0,0-9.05371.0001A4.527,4.527,0,0,0,38.83691,28.81348Zm-7.05371,0a2.527,2.527,0,0,1,5.05371.00007A2.527,2.527,0,0,1,31.7832,28.81348Zm-6.01562,7.3164a1.83805,1.83805,0,0,0-1.60645-.31543L11.85449,39.15332a1.85278,1.85278,0,0,0-1.36328,1.7832V51.86871c-2.45705-1.423-6.57107.13907-6.49115,2.92047.1639,4.55845,8.32785,4.56219,8.49115-.00021V45.116l12.00195-3.257v7.37817c-2.46313-1.42264-6.56837.13727-6.49213,2.92016.15845,4.55685,8.33154,4.56186,8.49213-.00021V37.59668A1.83155,1.83155,0,0,0,25.76758,36.12988ZM8.24609,56.24414c-2.95482-.09661-2.95445-2.81375.00006-2.91016C11.19971,53.43036,11.19934,56.148,8.24609,56.24414Zm4.24512-13.19983V41.05273L24.49316,37.7959v1.99139Zm9.75586,10.568c-2.95482-.09661-2.95445-2.81375.00006-2.91015C25.2019,50.79876,25.20153,53.5159,22.24707,53.6123Zm27.027-8.83563a1.00019,1.00019,0,0,1-.00006-2A1.00019,1.00019,0,0,1,49.27405,44.77667Z"/></svg>